<?xml version="1.0" encoding="UTF-8"?>
<svg id="Layer_1" xmlns="http://www.w3.org/2000/svg" version="1.1" viewBox="0 0 1000 1024">
  <!-- Generator: Adobe Illustrator 30.1.0, SVG Export Plug-In . SVG Version: 2.1.1 Build 136)  -->
  <defs>
    <style>
      .st0 {
        fill: #afa200;
      }
    </style>
  </defs>
  <path class="st0" d="M481.42,792.91c-45.62-11.55-77.1-41.95-106.44-75.14-9.1-10.3-17-21.67-25.87-33.1-2.51,9.4-4.66,18.33-7.31,27.12-2.45,8.13-6.11,15.8-12.19,21.87-15.94,15.9-37.35,10.75-47.14-11.31-9.91-22.32-9.81-45.5-5.48-68.96,3.33-18.02,10.16-34.55,21.8-48.86,2.37-2.92,4.44-6.57,9.2-6.53,3.52,3.61.39,6.78-.81,9.78-7.7,19.46-13.14,39.28-11.66,60.53.62,8.91,3.07,17.17,7.71,24.69,4.89,7.91,11.09,8.5,17.84,2.1,12.5-11.85,16.69-32.81,9.46-48.59-14.69-32.1-20.84-66.31-25.29-100.96-2.13-16.59-3.63-33.26-4.33-50.49-2.28.63-3.35.59-3.84,1.11-19.52,20.53-42.54,37.2-62.77,56.95-25.69,25.09-43.55,54.23-47.99,90.6-2.76,22.53,1.34,44.24,7.15,65.8,2.01,7.44,4.16,14.84,6.44,22.97-5.68-.12-6.79-4-8.49-6.73-38.66-62.23-33.71-128.7,13.73-185.29,11.42-13.62,23.59-26.58,37.2-38,41.87-35.15,66.72-79.75,75.61-133.57,2.71-16.4,8.37-32.02,16.2-46.67,21.27-39.78,62.85-59.48,108.53-52.72,27.25,4.03,54.24,11.4,82.22,8.29,42.9-4.78,101.3-34.07,108.91-99.7.48-4.1,1.48-8.14,3.24-12.24,6.36,10.7,7.09,22.46,5.84,34.16-3.92,36.73-24.04,63.55-53.68,83.7-31.88,21.67-67.13,29.43-105.56,24.62-20.81-2.6-41.68-6.12-62.84-4.41-25.11,2.02-43.65,13.95-55.05,36.57-7.93,15.74-11.91,32.72-15.31,49.84-2.82,14.2-7.18,27.9-12.39,41.39-1.46,3.78-3.94,7.54-2.1,12.08,4.33.93,7.48-1.83,10.97-3.24,37.61-15.26,73.98-12.73,109.11,7.55,7.98,4.61,14.46,10.78,18.44,19.24,1.71,3.65,2.82,7.69-.08,11.06-2.97,3.45-7.21,2.91-10.89,1.27-6.3-2.8-12.63-5.69-18.54-9.22-32.58-19.48-67.03-20.53-102.73-11.18-6.54,1.71-9.96,5-9.08,11.99.15,1.18-.06,2.41-.02,3.61.24,6.29-1.54,13.79,1.29,18.56,3.35,5.67,10.86-.04,16.66.58,7.71.83,14.86,2.9,21.29,6.76,20.29,12.17,41.45,16.27,64.83,10.4,13.3-3.33,25.68,2.26,30.9,12.4-20.26-3.23-37.44,8.01-56.44,9.11-14.66.85-27.72-4.31-39.79-12.26-8.02-5.29-15.42-11.56-24.3-15.49-3.81-1.69-7.5-3.81-12.96-3.06-2.19,7.81.31,15.82.86,23.57,2.32,32.72,6.61,65.24,17.78,96.28,19.97,55.49,54.61,100,103.44,132.95,32.04,21.61,65.91,21.72,98.73,2.22,50.5-30,86.35-73.13,108.67-127.42,7.85-19.1,13.82-38.88,19.03-59.95,5.4,4.43,3.52,9.14,3.13,13.1-2.33,23.71-7.06,46.88-16.29,69.01-5.04,12.08,3.06,38.27,13.72,45.8,7.14,5.04,12.13.77,15.97-4.54,5.81-8.03,7.44-17.59,8.01-27.3,1.17-19.99-4.44-38.63-11.41-57.01-1.19-3.13-4.01-6.26-1.07-10.42,5.87,1.12,9.01,5.84,11.76,10.14,21.41,33.48,27.28,69.42,15.94,107.75-1.26,4.26-3.51,8.34-5.88,12.14-11.71,18.77-33.85,19.52-47.02,1.59-6.31-8.6-9.89-18.51-12.65-28.72-.92-3.38-.89-7.18-4.91-10.06-7.07,6.56-11.53,15.17-17.29,22.67-17.53,22.82-37.41,43.13-61.28,59.38-27.89,18.98-58.31,26.31-92.46,19.88Z"/>
  <path class="st0" d="M786.86,827.64c-38.93,5.27-68.73,26.16-96.45,50.89-30.02,26.78-61.55,51.22-100.5,63.78-83.39,26.9-159.4,12.02-228.45-41.08-7.39-5.68-14.57-11.62-21.87-17.4-.68-.54-1.6-.78-2.87-1.37-3.96,2.94-5.09,7.85-7.39,11.89-9.49,16.68-20.75,31.84-37.69,41.61-17.65,10.18-36.44,12.28-55.46,4.42-23.22-9.6-35.85-36.09-31.27-63.79,2.01-12.17,4.98-24.12,8.84-35.83,3.06-9.28,3.98-18.8,3.47-28.46-1.36-25.66-29.1-40.76-51.56-28.14-22.12,12.43-32.62,38.57-25.96,64.5,3.8,14.82,11.26,27.75,20.03,40.09,2.84,3.99,6.65,7.54,8.08,14.73-11.49-5.29-18.67-13.19-25.76-21.01-27.98-30.87-31.07-75.23-7.52-104.99,20.71-26.16,60.39-32.64,87.7-13.79,16.94,11.69,22.84,29.48,24.54,49.03,1.3,14.94-2.63,29.19-6.1,43.51-2.6,10.75-5.6,21.51-2.84,32.8,4.23,17.27,19.54,24.33,35.48,16.3,9.88-4.98,16.18-13.3,21.17-22.72,3.93-7.43,7.07-15.29,11.13-22.65,10.2-18.5,28.46-23.29,46.75-12.63,9.68,5.64,17.8,13.32,26.39,20.36,40.77,33.41,87.03,52.02,140.17,50.57,46.44-1.27,88.07-17.03,125.47-44.47,23.73-17.4,45.99-37.06,72.68-50.07,55.26-26.93,108.1-22.32,158.19,13.32,2.36,1.68,5.26,3.07,5.95,8.8-30.47-13.16-61.05-21.36-94.37-18.19Z"/>
  <path class="st0" d="M260.26,776.96c-47.08-34.79-52.82-92.15-36.75-125.79,3.11,7.33,1.81,14.58,2.74,21.39,6.65,48.81,33.32,80.5,80.04,95.7,22.53,7.33,45.64,13.11,66.26,25.59,15.49,9.37,29.23,21.13,44.24,31.14,31.04,20.71,64.57,33.56,102.34,31.95,35.72-1.53,68.07-13.39,97.41-33.91,19.46-13.6,38.91-27.29,60.34-37.8,27.69-13.58,56.63-21.77,87.76-20.16,25.48,1.32,48.86,9.24,70.05,23.49,1.65,1.11,3.83,2.05,3.56,5.66-10.16-2.13-20.16-4.53-30.27-6.29-42.38-7.39-81.08,2.69-117.08,25.12-16.62,10.35-31.96,22.49-47.25,34.66-36.09,28.72-76.7,46.07-123.07,47.88-45.55,1.78-86.2-13.25-123.53-38.44-2.99-2.02-6.05-4-8.75-6.37-27.52-24.05-58.78-41.53-93.09-53.91-12.5-4.51-23.77-11.55-34.94-19.9Z"/>
  <path class="st0" d="M544.93,91.21c-27.14-6.41-53.09-6.18-78.19,5.64-9.35,4.4-17.82,10.03-24.69,17.83-15.64,17.77-11.45,41.04,9.27,52.53,9.96,5.53,20.88,7.87,31.92,8.8,33.9,2.87,66.51-1.31,96.46-19.13,12.43-7.39,22.17-17.32,30.47-28.96,1.97-2.76,3.18-6.51,7.33-7.38,2.42,3.33.68,6.43-.15,9.48-8.05,29.48-29.33,47.31-55.47,59.16-35.96,16.31-73.96,20.56-112.73,11.9-23.3-5.21-41.45-17.87-49.52-41.44-8.66-25.28,1.38-53,24.86-70.8,33.61-25.49,88.37-27.15,123.25-3.71,1.89,1.27,4.39,2.2,4.34,5.21-1.77,2.98-4.26,1.02-7.15.88Z"/>
  <path class="st0" d="M223.22,252.62c35.03,14.63,73.75,7.26,98.75-18.91,17.4-18.22,25.92-39.89,25.04-65.44-.86-24.93-11.77-45.25-28.67-64.22,34.8,4.11,67.77,45.76,68.53,87.36.9,49.2-28.51,87.61-75.57,99.32-41.02,10.21-89.6-11.13-103.97-45.3,6.26.39,10.04,5.38,15.89,7.19Z"/>
  <path class="st0" d="M515.96,517.69c5.35-50.24,44.38-85.67,94.18-86.6,24.64-.46,47.84,3.68,68.07,18.75,3.49,2.6,7.61,4.81,9.5,10.07-5.06,2.45-9.48-.48-13.8-1.3-24.02-4.54-48.02-7.31-72.31-1.88-38.54,8.61-64.35,35.35-71.53,74.29-3.98,21.57-6.29,43.32-7.13,65.23-.07,1.73-.49,3.45-.8,5.51-7.01-7.06-10.68-58.32-6.17-84.07Z"/>
  <path class="st0" d="M501.78,360.33c-1.52,4.87-3.92,8.81-3.77,13.8,7.02,1.72,13.74,2.96,18.22,9.12,9.52,13.09,5.3,28.41-10.21,32.86-8.33,2.39-9.92,5.93-6.62,13.36,3.73,8.41,7,17.02,10.49,25.62-4.39,2.49-6.72-.41-9.04-2.43-25.04-21.78-38.96-58.06-14.82-93.33,6.56-9.59,12.38-19.68,17.57-30.47,5.47,10.65,2.6,20.75-1.82,31.48Z"/>
  <path class="st0" d="M583.84,529.62c-12.94-4.04-25.21-7.59-38.56-7.3,4.62-8.54,15.31-13.93,26.43-11.23,24.41,5.93,46.74,2.35,68.16-10.54,7.68-4.62,16.49-7.22,25.86-6.22,3.8.41,7.65.62,11.77,5.55-20.22,4.65-33.4,19.67-50.71,27.65-13.72,6.33-27.91,5.81-42.95,2.08Z"/>
  <path class="st0" d="M487.8,684.88c-9.04-2.73-17.5.33-25.78-.77-7.19-.96-15.16-1.34-16.96-10.6,1.88-2.65,4.21-2.61,6.1-2.04,9.84,3,18.99-.02,28.12-2.99,6.58-2.14,13.02-2.35,19.21.89,4.96,2.6,9.67,2.31,14.67.14,6.88-2.99,14.03-3.4,21.04-.61,8.84,3.52,17.65,5.74,27.07,2.25,1.63-.61,3.59-.56,5.19,1.38.79,4.94-2.47,7.28-6.56,8.98-6.21,2.59-12.74,4.08-19.34,2.65-7.32-1.59-14.69-1.31-21.31,1.17-10.55,3.96-20.51,3.15-31.45-.45Z"/>
  <path class="st0" d="M489.47,639.85c-5.1-3.44-10.22-5.15-15.28-7.08-7.82-2.98-9.7-6.07-9.68-16.64,10.08,3.84,20.02,6.79,29.15,11.35,8.91,4.46,16.7,5.04,25.46-.15,6.14-3.64,13.12-5.87,19.8-8.56,1.85-.75,4.08-1.76,5.87.21,2.02,2.22.93,4.65-.27,6.67-1.19,2.01-2.63,4.62-4.57,5.32-9.64,3.52-17.88,9.69-27.09,13.88-8.31,3.77-15.78-.24-23.4-5Z"/>
  <path class="st0" d="M516.75,435.05c-2.09.95-3.46,2.68-6.67.21,17.35-26.37,17.57-54.1,1.91-82.25,27.41,14.36,41.02,54.72,4.76,82.04Z"/>
  <path class="st0" d="M514.31,718.9c-12.63.8-24.38.97-34.46-6.75-3.45-2.64-7.7-5.01-6.13-12.99,21.06,9.72,42.56,6.22,66.13,1.37-5.06,13.83-15.27,15.54-25.55,18.37Z"/>
</svg>