<?xml version="1.0" encoding="UTF-8"?>
<svg id="Layer_1" xmlns="http://www.w3.org/2000/svg" version="1.1" viewBox="0 0 1000 1024">
  <!-- Generator: Adobe Illustrator 30.1.0, SVG Export Plug-In . SVG Version: 2.1.1 Build 136)  -->
  <defs>
    <style>
      .st0 {
        fill: #ffffff;
      }
    </style>
  </defs>
  <path class="st0" d="M476.83,898.23c-55.81-14.13-94.32-51.32-130.21-91.92-11.14-12.6-20.79-26.51-31.65-40.49-3.07,11.5-5.7,22.43-8.94,33.17-2.99,9.94-7.48,19.33-14.92,26.75-19.51,19.45-45.68,13.14-57.67-13.84-12.12-27.3-12-55.66-6.7-84.36,4.07-22.05,12.43-42.26,26.67-59.77,2.9-3.57,5.43-8.04,11.25-7.98,4.31,4.42.47,8.29-.99,11.97-9.42,23.8-16.08,48.05-14.26,74.05.76,10.9,3.75,21,9.43,30.2,5.98,9.68,13.56,10.4,21.83,2.57,15.29-14.49,20.42-40.13,11.58-59.44-17.97-39.26-25.49-81.12-30.94-123.51-2.61-20.3-4.44-40.69-5.3-61.77-2.79.77-4.1.72-4.7,1.36-23.88,25.11-52.04,45.51-76.79,69.67-31.43,30.69-53.27,66.34-58.71,110.83-3.37,27.56,1.64,54.12,8.75,80.49,2.45,9.1,5.08,18.15,7.88,28.1-6.95-.14-8.3-4.89-10.38-8.24-47.29-76.13-41.24-157.43,16.8-226.67,13.97-16.66,28.86-32.51,45.5-46.49,51.22-43,81.62-97.56,92.49-163.4,3.31-20.07,10.24-39.17,19.82-57.09,26.01-48.66,76.88-72.76,132.76-64.5,33.34,4.93,66.35,13.95,100.59,10.14,52.48-5.84,123.92-41.68,133.22-121.97.58-5.02,1.82-9.96,3.96-14.97,7.78,13.09,8.67,27.47,7.15,41.79-4.79,44.93-29.4,77.74-65.66,102.38-39,26.51-82.12,36.01-129.13,30.12-25.46-3.19-50.99-7.48-76.88-5.39-30.71,2.48-53.39,17.07-67.34,44.74-9.7,19.25-14.57,40.02-18.73,60.97-3.45,17.37-8.79,34.14-15.16,50.63-1.79,4.62-4.82,9.22-2.56,14.78,5.3,1.14,9.15-2.24,13.42-3.97,46.01-18.67,90.5-15.58,133.47,9.23,9.76,5.64,17.69,13.18,22.55,23.54,2.1,4.47,3.45,9.41-.09,13.53-3.63,4.22-8.82,3.56-13.32,1.56-7.71-3.43-15.45-6.96-22.68-11.28-39.85-23.83-82-25.11-125.67-13.67-8,2.09-12.18,6.12-11.11,14.67.18,1.45-.08,2.94-.02,4.41.29,7.7-1.88,16.87,1.57,22.71,4.1,6.94,13.28-.05,20.38.72,9.43,1.01,18.18,3.55,26.05,8.27,24.83,14.89,50.7,19.9,79.31,12.72,16.27-4.08,31.41,2.76,37.8,15.17-24.78-3.95-45.8,9.79-69.04,11.14-17.94,1.04-33.91-5.27-48.67-15-9.82-6.47-18.86-14.14-29.73-18.95-4.66-2.06-9.18-4.66-15.85-3.75-2.67,9.56.38,19.35,1.05,28.83,2.84,40.02,8.08,79.81,21.75,117.77,24.43,67.88,66.8,122.34,126.54,162.64,39.19,26.44,80.63,26.57,120.77,2.72,61.78-36.7,105.63-89.46,132.93-155.87,9.6-23.37,16.9-47.56,23.28-73.34,6.61,5.42,4.31,11.18,3.83,16.03-2.85,29.01-8.64,57.34-19.93,84.42-6.16,14.77,3.74,46.82,16.79,56.02,8.74,6.17,14.84.94,19.54-5.56,7.11-9.82,9.1-21.52,9.8-33.4,1.43-24.46-5.43-47.26-13.96-69.74-1.45-3.83-4.9-7.66-1.31-12.74,7.18,1.37,11.02,7.14,14.39,12.41,26.2,40.95,33.37,84.92,19.5,131.81-1.54,5.21-4.29,10.2-7.19,14.85-14.32,22.96-41.41,23.88-57.52,1.94-7.72-10.52-12.1-22.64-15.48-35.14-1.12-4.14-1.09-8.78-6-12.3-8.65,8.03-14.1,18.56-21.15,27.73-21.44,27.92-45.76,52.76-74.96,72.63-34.12,23.21-71.33,32.19-113.11,24.32Z"/>
  <path class="st0" d="M206.3,878.73c-57.59-42.56-64.61-112.72-44.95-153.87,3.8,8.97,2.22,17.83,3.36,26.17,8.14,59.71,40.76,98.47,97.91,117.06,27.57,8.97,55.83,16.04,81.05,31.3,18.95,11.46,35.75,25.84,54.11,38.1,37.97,25.34,78.99,41.06,125.19,39.09,43.69-1.87,83.27-16.38,119.17-41.48,23.8-16.64,47.59-33.38,73.81-46.24,33.88-16.61,69.28-26.63,107.35-24.66,31.17,1.61,59.77,11.3,85.69,28.73,2.02,1.36,4.68,2.51,4.35,6.93-12.43-2.61-24.66-5.54-37.03-7.7-51.84-9.05-99.19,3.29-143.23,30.73-20.33,12.67-39.1,27.51-57.8,42.4-44.15,35.13-93.83,56.36-150.55,58.57-55.72,2.17-105.45-16.21-151.11-47.02-3.66-2.47-7.4-4.89-10.7-7.79-33.66-29.42-71.91-50.8-113.88-65.94-15.3-5.52-29.08-14.12-42.74-24.34Z"/>
  <path class="st0" d="M554.53,39.84c-33.2-7.85-64.95-7.56-95.65,6.89-11.44,5.38-21.8,12.27-30.2,21.81-19.13,21.74-14,50.2,11.35,64.26,12.19,6.76,25.55,9.62,39.05,10.77,41.47,3.52,81.37-1.61,117.99-23.4,15.2-9.04,27.12-21.19,37.27-35.43,2.41-3.38,3.89-7.97,8.97-9.03,2.96,4.08.84,7.87-.18,11.6-9.85,36.07-35.88,57.87-67.86,72.37-43.99,19.95-90.48,25.15-137.91,14.56-28.5-6.37-50.7-21.86-60.58-50.69-10.6-30.92,1.69-64.83,30.42-86.61,41.12-31.18,108.1-33.22,150.78-4.54,2.31,1.55,5.38,2.69,5.31,6.37-2.17,3.65-5.22,1.25-8.75,1.07Z"/>
  <path class="st0" d="M160.98,237.29c42.86,17.9,90.22,8.88,120.8-23.13,21.29-22.28,31.7-48.79,30.63-80.05-1.05-30.5-14.4-55.35-35.07-78.56,42.57,5.03,82.9,55.98,83.83,106.86,1.1,60.19-34.88,107.17-92.45,121.49-50.18,12.49-109.61-13.62-127.19-55.42,7.66.48,12.29,6.58,19.43,8.79Z"/>
  <path class="st0" d="M519.09,561.56c6.55-61.45,54.29-104.8,115.21-105.94,30.15-.57,58.53,4.5,83.27,22.93,4.26,3.18,9.31,5.88,11.62,12.32-6.19,2.99-11.59-.59-16.89-1.59-29.39-5.55-58.75-8.94-88.46-2.3-47.15,10.53-78.72,43.24-87.51,90.88-4.87,26.39-7.7,52.99-8.73,79.8-.08,2.12-.6,4.22-.98,6.74-8.58-8.64-13.06-71.34-7.55-102.84Z"/>
  <path class="st0" d="M501.75,369.06c-1.86,5.96-4.8,10.78-4.61,16.88,8.59,2.1,16.81,3.62,22.29,11.16,11.64,16.01,6.49,34.76-12.49,40.2-10.19,2.92-12.13,7.25-8.1,16.34,4.56,10.29,8.56,20.82,12.83,31.34-5.37,3.04-8.22-.5-11.06-2.97-30.63-26.64-47.67-71.02-18.13-114.17,8.03-11.73,15.15-24.08,21.49-37.28,6.69,13.02,3.18,25.39-2.23,38.5Z"/>
  <path class="st0" d="M602.13,576.15c-15.83-4.95-30.84-9.28-47.17-8.93,5.65-10.45,18.73-17.04,32.33-13.74,29.86,7.25,57.17,2.87,83.39-12.89,9.4-5.65,20.18-8.83,31.63-7.6,4.65.5,9.36.76,14.4,6.79-24.73,5.69-40.85,24.06-62.03,33.83-16.79,7.74-34.14,7.11-52.54,2.54Z"/>
  <path class="st0" d="M484.64,766.09c-11.06-3.34-21.4.4-31.54-.95-8.79-1.17-18.55-1.63-20.74-12.97,2.3-3.25,5.15-3.2,7.46-2.5,12.04,3.67,23.23-.02,34.4-3.66,8.05-2.62,15.93-2.88,23.51,1.09,6.07,3.18,11.84,2.83,17.94.17,8.41-3.66,17.16-4.16,25.74-.74,10.82,4.31,21.6,7.03,33.12,2.75,2-.74,4.39-.68,6.35,1.68.97,6.04-3.02,8.9-8.02,10.99-7.6,3.17-15.59,4.99-23.66,3.24-8.96-1.94-17.97-1.61-26.06,1.43-12.91,4.84-25.09,3.85-38.47-.55Z"/>
  <path class="st0" d="M486.68,711c-6.24-4.2-12.51-6.3-18.7-8.66-9.57-3.64-11.87-7.43-11.84-20.36,12.33,4.7,24.49,8.3,35.65,13.89,10.9,5.45,20.43,6.17,31.15-.19,7.51-4.45,16.05-7.19,24.22-10.47,2.27-.91,4.99-2.15,7.18.26,2.47,2.71,1.14,5.69-.33,8.16-1.46,2.46-3.22,5.65-5.59,6.51-11.8,4.31-21.87,11.86-33.14,16.98-10.16,4.61-19.3-.29-28.62-6.12Z"/>
  <path class="st0" d="M520.06,460.46c-2.56,1.17-4.24,3.28-8.15.26,21.22-32.25,21.49-66.18,2.34-100.61,33.53,17.56,50.18,66.94,5.82,100.36Z"/>
  <path class="st0" d="M517.07,807.7c-15.45.98-29.83,1.19-42.15-8.25-4.22-3.23-9.41-6.13-7.5-15.89,25.76,11.89,52.06,7.61,80.89,1.67-6.19,16.91-18.68,19-31.25,22.47Z"/>
</svg>